<?xml version="1.0" encoding="utf-8"?>
<!-- Generator: Adobe Illustrator 24.0.1, SVG Export Plug-In . SVG Version: 6.00 Build 0)  -->
<svg version="1.1" id="Layer_1" xmlns="http://www.w3.org/2000/svg" xmlns:xlink="http://www.w3.org/1999/xlink" x="0px" y="0px"
	 viewBox="0 0 419.3 349.4" style="enable-background:new 0 0 419.3 349.4;" xml:space="preserve">
<style type="text/css">
	.st0{fill-rule:evenodd;clip-rule:evenodd;fill:#FFFFFF;}
	.st1{fill:#FFFFFF;}
</style>
<path class="st0" d="M149.2,70.2c5.1,0.1,10.6,0,11.1-0.1c1.6-0.4,2.6-2.4-2-2.4l-9.1,0.1l-9.1-0.1c-4.6,0-3.6,2-2,2.4
	C138.6,70.2,144.1,70.2,149.2,70.2"/>
<rect x="145.6" y="62.8" class="st1" width="2.1" height="6"/>
<rect x="149.6" y="62.8" class="st1" width="2.1" height="6"/>
<path class="st1" d="M252.2,152.9c22.7,0.1,41.2-18.3,41.2-41s-18.3-41.2-41-41.2c-9.3,0-18.3,3.1-25.6,8.8V46
	c0-4.4-3.5-7.9-7.9-7.9s-7.9,3.5-7.9,7.9v65.8C211.1,134.5,229.5,152.9,252.2,152.9 M252.2,86.6c14,0,25.3,11.3,25.3,25.3
	s-11.3,25.3-25.3,25.3s-25.3-11.3-25.3-25.3c0-13.9,11.2-25.3,25.1-25.3C252.1,86.5,252.1,86.5,252.2,86.6L252.2,86.6z M183.6,152.9
	c4.3,0,7.9-3.6,7.9-7.9v-33.2c0-22.7-18.4-41.1-41.1-41.1s-41.1,18.4-41.1,41.1s18.4,41.1,41.1,41.1l0,0c9.1,0,17.9-3.1,25-8.8v0.9
	C175.5,149.4,179.2,152.9,183.6,152.9L183.6,152.9z M150.4,86.5c14,0,25.3,11.3,25.3,25.3s-11.3,25.3-25.3,25.3
	s-25.3-11.3-25.3-25.3c0,0,0,0,0,0c0-13.9,11.2-25.2,25.2-25.3C150.4,86.5,150.4,86.5,150.4,86.5z M50.9,152.9
	c22.7,0.1,41.2-18.3,41.2-41c0.1-22.7-18.3-41.2-41-41.2c-9.3,0-18.3,3.1-25.6,8.8V46c0-4.4-3.5-7.9-7.9-7.9S9.8,41.6,9.8,46v65.8
	C9.9,134.5,28.2,152.8,50.9,152.9z M21.4,188.8c3.7,0,6.9,2.5,7.7,6.1l0,0c23.8,94.5,119.7,151.8,214.1,128
	c73.8-18.6,127.4-82.4,132.9-158.4c0.8-10.8,0.4-9.4,0.4-20.2c-7.2,5.5-16,8.5-25,8.6c-22.5,0-40.8-18.2-40.9-40.7c0,0,0-0.1,0-0.1
	V79c0-4.4,3.5-7.9,7.9-7.9s7.9,3.5,7.9,7.9v33c0,13.8,11.2,25.1,25,25.1c13.8,0,25.1-11.2,25.1-25.1V79c0-4.4,3.5-7.9,7.9-7.9
	s7.9,3.5,7.9,7.9v33c0,21.7,1,32.3-0.5,53.9c-7.7,105.9-99.9,185.4-205.7,177.7C103.5,337.5,34,279.1,13.8,198.7l0,0
	c-0.2-0.7-0.3-1.3-0.3-2C13.5,192.4,17,188.8,21.4,188.8C21.4,188.8,21.4,188.8,21.4,188.8z M50.9,86.5c14,0,25.3,11.3,25.3,25.3
	s-11.3,25.3-25.3,25.3s-25.3-11.3-25.3-25.3c0,0,0,0,0,0C25.6,97.8,36.9,86.5,50.9,86.5C50.8,86.5,50.9,86.5,50.9,86.5z"/>
<path class="st1" d="M72,226.2H58.6v-41.9h3.7v38.6H72V226.2z"/>
<path class="st1" d="M116.3,226.2h-13.8v-41.9h13.6v3.3h-9.9v15.6h9v3.3h-9v16.3h10L116.3,226.2z"/>
<path class="st1" d="M161.4,226.2h-13.8v-41.9h13.6v3.3h-9.9v15.6h9v3.3h-9v16.3h10L161.4,226.2z"/>
<path class="st1" d="M206.1,187.6h-9.8v15.9h9v3.4h-9v19.4h-3.7v-41.9h13.5V187.6z"/>
<path class="st1" d="M254.4,223.2c0,0.8-0.3,1.6-0.8,2.1c-0.6,0.6-1.4,0.9-2.1,0.8h-11.7c-1.6,0.1-2.9-1.1-3-2.7c0-0.1,0-0.2,0-0.3
	v-36c0-0.8,0.3-1.6,0.8-2.1c0.6-0.6,1.3-0.9,2.1-0.8h11.7c0.8,0,1.6,0.3,2.1,0.8c0.6,0.6,0.9,1.3,0.8,2.1L254.4,223.2z M250.7,222.9
	v-35.3h-10.3v35.3L250.7,222.9z"/>
<path class="st1" d="M304.4,226.2h-3.9l-7.8-22.4l0.5-0.8h6.6v-15.4h-9.6v38.6h-3.7v-41.9h14c0.8,0,1.6,0.3,2.1,0.8
	c0.6,0.6,0.9,1.3,0.8,2.1v15.9c0,2-1.4,3-4.1,3h-1.2c-0.5,0-0.9,0-1.1,0C299.6,212.8,302,219.4,304.4,226.2z"/>
<path class="st1" d="M349.9,187.6h-6.5v38.6h-3.7v-38.6h-6.5v-3.3h16.7V187.6z"/>
<path class="st0" d="M146.1,23.4c6.8,3.6,9.4,12,5.8,18.8c-2.4,4.6-7.2,7.5-12.4,7.4c-5.9,0-11.3-3.7-13.3-9.3l9.2-7.8L146.1,23.4z
	 M104.7,57.3c1.9,0.6,2,0,5.3-2.8L124,42.9c2.2,2.3,2.1,3.5,4.7,5.4c2,1.6,4.3,2.7,6.8,3.3c9.5,2.2,19-3.6,21.2-13.1
	c1-4.3,0.4-8.7-1.7-12.6c-1.9-3.5-4-4.6-4.8-5.8c0.9-0.6,1.8-1.4,2.6-2.2c1.6-1.6,6.3-5.7,8.4-6.6c11.4-4.9,22.8,7.7,16.5,18.5
	c-0.6,1.3-1.6,2.4-2.7,3.1c-2.3,0.6-4.5,1.7-6.4,3.2c1.9-0.6,3.8-1.1,5.8-1.5c-0.1,0.5-0.1,1-0.2,1.8c-0.3,2.7-1,5.4-2.2,7.9
	c-8.9,19.5-33.5,21.5-45.6,9c-0.8-0.8-1.6-1.6-2.3-2.5c-0.7-1-1.5-2-2.3-3l-8.4,6.7c-1.3,1.1-2.3,1.1-1.7,3l0.7,0.2
	c0.4,0,0.3,0.6,2.2-0.9l6.6-5.4c2.4,1.8,1.7,2.8,7,6.7c12.8,9.7,37.8,7.3,46.5-13.6c3-7.4,0.9-8.4,3.3-10.8s3.8-5.7,4-10.1
	c1.2,0.2,3.8,0.6,4.3-1.3l-4.5-1.2c-1.5-8.6-10.4-16.2-20.9-12.2c-2.7,1-11.3,8.5-14.4,11.5c-4.9,4.7-13.4,11.3-18.8,16
	c-1.2,1-1.4,1.2-2.4,2s-1.5,1.3-2.4,2.1c-5.2,4.2-10.8,9.5-16.7,14C104.9,55.5,104.4,55.3,104.7,57.3z"/>
<path class="st0" d="M173.3,20.2c0.9,0,1.6,0.7,1.6,1.6s-0.7,1.6-1.6,1.6c-0.9,0-1.6-0.7-1.6-1.6v0
	C171.7,20.9,172.4,20.2,173.3,20.2"/>
<path class="st1" d="M381.8,65.7V51.8h-5V49h13.4v2.8h-5v13.9H381.8z"/>
<path class="st1" d="M392.3,65.7V49h5.1l3,11.5l3-11.5h5.1v16.7h-3.1V52.5L402,65.7h-3.3l-3.3-13.2v13.2H392.3z"/>
</svg>
