<svg id="Layer_1" data-name="Layer 1" xmlns="http://www.w3.org/2000/svg" viewBox="0 0 419.29 349.41"><defs><style>.cls-1,.cls-2{fill:#ec1a5c;}.cls-1{fill-rule:evenodd;}</style></defs><title>LF1</title><path class="cls-1" d="M147.17,67.15c5.1.06,10.59,0,11.13-.12,1.55-.39,2.63-2.38-2-2.38l-9.12.09-9.12-.09c-4.63,0-3.55,2-2,2.38.55.14,6,.18,11.13.12"/><rect class="cls-2" x="143.64" y="59.75" width="2.06" height="5.99"/><rect class="cls-2" x="147.62" y="59.75" width="2.06" height="5.99"/><path class="cls-2" d="M250.17,149.87a41.1,41.1,0,1,0-25.27-73.4V43a7.91,7.91,0,1,0-15.82,0v65.82a41.17,41.17,0,0,0,41.09,41.09m0-66.36a25.27,25.27,0,1,1-25.27,25.27A25.22,25.22,0,0,1,250.17,83.51Zm-68.56,66.36a8,8,0,0,0,7.91-7.91V108.78a41.09,41.09,0,1,0-41.09,41.09,39.92,39.92,0,0,0,25-8.79V142A8.07,8.07,0,0,0,181.61,149.87ZM148.43,83.51a25.27,25.27,0,1,1-25.27,25.27A25.22,25.22,0,0,1,148.43,83.51ZM48.88,149.87a41.1,41.1,0,1,0-25.27-73.4V43A7.91,7.91,0,1,0,7.79,43v65.82A41.17,41.17,0,0,0,48.88,149.87ZM19.42,185.78a7.9,7.9,0,0,1,7.69,6.1h0a176.4,176.4,0,0,0,347-30.4c.75-10.75.42-9.39.42-20.18a41.57,41.57,0,0,1-25.05,8.57A40.8,40.8,0,0,1,308.63,109V76a7.91,7.91,0,1,1,15.82,0v33a25.05,25.05,0,1,0,50.1,0V76a7.91,7.91,0,0,1,15.82,0v33c0,21.66,1,32.26-.5,53.86A192.2,192.2,0,0,1,11.79,195.72h0a8.09,8.09,0,0,1-.27-2A7.9,7.9,0,0,1,19.42,185.78ZM48.88,83.51a25.27,25.27,0,1,1-25.27,25.27A25.23,25.23,0,0,1,48.88,83.51Z"/><path class="cls-2" d="M70,223.16H56.63v-41.9h3.72v38.6H70Z"/><path class="cls-2" d="M114.32,223.16H100.56v-41.9h13.6v3.29h-9.88v15.64h9v3.34h-9v16.33h10Z"/><path class="cls-2" d="M159.35,223.16H145.59v-41.9h13.6v3.29h-9.88v15.64h9v3.34h-9v16.33h10Z"/><path class="cls-2" d="M204.11,184.55h-9.77v15.9h9v3.35h-9v19.36h-3.72v-41.9h13.49Z"/><path class="cls-2" d="M252.4,220.18a2.9,2.9,0,0,1-.84,2.15,3,3,0,0,1-2.15.83H237.68a2.84,2.84,0,0,1-3-3v-36a2.91,2.91,0,0,1,.83-2.14,2.87,2.87,0,0,1,2.14-.83h11.73a2.91,2.91,0,0,1,2.15.83,2.88,2.88,0,0,1,.84,2.14Zm-3.72-.32V184.55H238.43v35.31Z"/><path class="cls-2" d="M302.39,223.16h-3.91l-7.79-22.44.51-.75h6.64V184.55h-9.56v38.61h-3.72v-41.9h14a2.87,2.87,0,0,1,2.14.83,2.91,2.91,0,0,1,.83,2.14v15.9q0,3-4.07,3l-1.18,0c-.51,0-.89,0-1.12,0Q298.81,213.08,302.39,223.16Z"/><path class="cls-2" d="M347.85,184.55h-6.48v38.61h-3.72V184.55h-6.53v-3.29h16.73Z"/><path class="cls-1" d="M144.13,20.43a13.88,13.88,0,0,1-6.66,26.15,14,14,0,0,1-13.26-9.31l9.24-7.82ZM102.74,54.32c1.87.61,2,0,5.35-2.82L122,39.91c2.16,2.35,2.07,3.48,4.72,5.41a18.32,18.32,0,0,0,6.78,3.34A17.63,17.63,0,0,0,153,23c-1.86-3.45-4-4.62-4.75-5.77a17.22,17.22,0,0,0,2.59-2.17c1.59-1.57,6.31-5.72,8.37-6.6C170.65,3.59,182,16.11,175.73,27A7.86,7.86,0,0,1,173,30.14a18.11,18.11,0,0,0-6.43,3.18,40.17,40.17,0,0,1,5.78-1.5c-.07.45-.13,1-.2,1.75A24.83,24.83,0,0,1,170,41.45C161.13,61,136.5,63,124.44,50.4a21.59,21.59,0,0,1-2.35-2.5c-.7-.95-1.46-2-2.29-3l-8.38,6.67c-1.29,1.14-2.26,1.13-1.74,3l.68.23c.45,0,.33.64,2.16-.9l6.63-5.43c2.38,1.85,1.69,2.77,7,6.74C139,64.92,164,62.46,172.61,41.64c3-7.39.9-8.41,3.3-10.83s3.75-5.74,4-10.14c1.24.16,3.76.57,4.26-1.3l-4.46-1.21C178.18,9.51,169.34,1.94,158.78,6c-2.69,1-11.32,8.51-14.39,11.46-4.91,4.72-13.41,11.31-18.77,16-1.2,1.05-1.44,1.2-2.43,2s-1.47,1.34-2.39,2.07c-5.21,4.15-10.84,9.45-16.69,14C102.87,52.54,102.39,52.32,102.74,54.32Z"/><path class="cls-1" d="M171.27,17.2a1.56,1.56,0,1,1-1.56,1.56,1.56,1.56,0,0,1,1.56-1.56"/><path class="cls-2" d="M379.84,62.74V48.8h-5V46H388.2V48.8h-5V62.74Z"/><path class="cls-2" d="M390.34,62.74V46h5.08l3,11.45,3-11.45h5.09V62.74h-3.15V49.53l-3.33,13.21h-3.27l-3.32-13.21V62.74Z"/></svg>