<svg id="Layer_1" data-name="Layer 1" xmlns="http://www.w3.org/2000/svg" viewBox="0 0 538 225.75"><defs><style>.cls-1,.cls-2{fill:#fff;}.cls-1{fill-rule:evenodd;}</style></defs><title>lf_logow</title><path class="cls-1" d="M366.28,44.47c-3-19.64-22.55-37.08-46.61-28.47-6.16,2.2-26,18.59-33.12,25.1C275.27,51.44,255.75,66,243.43,76.2c-2.79,2.32-3.26,2.67-5.58,4.42-2.09,1.62-3.37,2.9-5.46,4.53-12,9.18-25,20.69-38.36,30.8-2.9,2.09-3.95,1.62-3.25,6.16,4.18,1.51,4.42.23,12.32-6l32-25.45c4.77,5.46,4.53,8,10.34,12.44,4.42,3.25,8.84,6.16,15.11,7.9,25.11,6.74,50.33-12.2,49.86-38.7A40.55,40.55,0,0,0,305.84,54c-4.07-7.79-8.72-10.58-10.46-13.25A41.78,41.78,0,0,0,301.31,36c3.72-3.49,14.53-12.56,19.17-14.53C346.4,11,371.27,39.82,356.75,64.11c-3.26,5.46-5.12,5.93-6.16,6.86a40.12,40.12,0,0,0-14.65,6.86s10.35-3.14,13.14-3c-.12.93-.35,2.33-.59,4A54.86,54.86,0,0,1,343,96.42c-20.92,43.59-76.59,46.84-103.2,17.9a50.54,50.54,0,0,1-5.23-5.81c-1.52-2.09-3.26-4.65-5-6.74L210.3,116.3c-2.9,2.44-5.23,2.44-4.06,6.62l1.51.58c.93.12.69,1.51,4.88-1.86l15.22-12c5.23,4.3,3.61,6.39,15.35,15.58,10.34,8.13,24.52,12.78,39.28,13.13l-.12,9.18-12.55-.46c-10.46-.24-8.13,4.3-4.65,5.23,1.28.34,13.6.69,25.11.81,11.5.46,23.82.58,25.1.35,3.49-.82,6-5.23-4.42-5.46l-14.87-.12.23-10.34c21.27-3.38,42-16.16,52.65-40.57,7.21-16.5,2.44-18.94,8-24.29s8.72-12.78,9.53-22.66c2.79.46,8.48,1.51,9.76-2.67ZM302,75.85a31.37,31.37,0,0,1-32.16,30.57h-.15A31.94,31.94,0,0,1,240.17,84.8l21.27-17.2L286,47.72a31.71,31.71,0,0,1,16,28.13m-10.46,72.06h-1l-3.26-.12.24-9.3c1.51-.11,2.9-.11,4.41-.23Z" transform="translate(-19 -13.74)"/><path class="cls-1" d="M350.7,45.4a3.55,3.55,0,1,0-3.6,3.49,3.49,3.49,0,0,0,3.6-3.37V45.4" transform="translate(-19 -13.74)"/><path class="cls-1" d="M335.24,182.31h43a12.58,12.58,0,0,1,12.55,12.55v32.08a12.57,12.57,0,0,1-12.55,12.55h-43a12.58,12.58,0,0,1-12.55-12.55v-6.86h9.53v7.79a4.65,4.65,0,0,0,4.65,4.65h39.75a4.65,4.65,0,0,0,4.65-4.65v-33.7a4.65,4.65,0,0,0-4.65-4.65H336.87a4.65,4.65,0,0,0-4.65,4.65v7h-9.53V195a12.67,12.67,0,0,1,12.55-12.67M103.73,208.46h48v6.63h-48v17.2h51.72v6.62H94.55V208.46ZM94.55,182h60.9v6.63H94.55ZM257,215.09V239h-9.19V208.58H305v6.62H257ZM171.25,182h60.9v6.63h-60.9Zm9.18,26.5h48v6.63h-48v17.2h51.72v6.62h-60.9V208.46ZM248,182h60.9v6.63H248V182ZM19,182h9.18v50.21H79.9v6.63H19V182Zm396.09,32.78v24.17h-9.18V208.23H458a6.21,6.21,0,0,0,6.16-6.16v-5.81A6.21,6.21,0,0,0,458,190.1H405.91V182h55.55a10.87,10.87,0,0,1,10.81,10.81v11.39A10.86,10.86,0,0,1,461.46,215H446.24l27.43,24.17H460.19L432.76,215l-17.67-.23ZM487,182h60.79v6.63H522V238.8h-9.19V188.59H487Z" transform="translate(-19 -13.74)"/><path class="cls-2" d="M543.75,179.41v-8h-2.56v-1.63h6.63v1.63h-2.44v8Z" transform="translate(-19 -13.74)"/><path class="cls-2" d="M548.86,179.41v-9.65h2.56l1.51,6.62,1.51-6.62H557v9.65h-1.63v-7.56l-1.62,7.56h-1.63l-1.63-7.56v7.56Z" transform="translate(-19 -13.74)"/></svg>